<svg xmlns="http://www.w3.org/2000/svg" viewBox="0 0 128 128" role="img" aria-label="Archer">
  <defs>
    <radialGradient id="aura" cx="50%" cy="42%" r="66%">
      <stop offset="0" stop-color="#caffdf" stop-opacity=".62"/>
      <stop offset=".48" stop-color="#27ae60" stop-opacity=".3"/>
      <stop offset="1" stop-color="#0b1118" stop-opacity="0"/>
    </radialGradient>
    <linearGradient id="leather" x1="33" x2="96" y1="19" y2="112">
      <stop stop-color="#7bed9f"/>
      <stop offset=".45" stop-color="#1f9d55"/>
      <stop offset="1" stop-color="#124734"/>
    </linearGradient>
    <linearGradient id="wood" x1="18" x2="110" y1="18" y2="110">
      <stop stop-color="#f0c27b"/>
      <stop offset="1" stop-color="#7b4f28"/>
    </linearGradient>
    <filter id="shadow" x="-20%" y="-20%" width="140%" height="150%">
      <feDropShadow dx="0" dy="7" stdDeviation="5" flood-color="#000" flood-opacity=".4"/>
    </filter>
  </defs>
  <ellipse cx="64" cy="72" rx="49" ry="44" fill="url(#aura)"/>
  <g filter="url(#shadow)" stroke-linecap="round" stroke-linejoin="round">
    <path d="M64 13l29 25-11 76-18-10-18 10-11-76z" fill="url(#leather)" stroke="#0f2d22" stroke-width="4"/>
    <path d="M46 42l18-20 18 20-8 15H54z" fill="#153d2e" stroke="#9ff0bb" stroke-width="3"/>
    <path d="M29 18c-20 31-20 61 0 92" fill="none" stroke="url(#wood)" stroke-width="7"/>
    <path d="M29 18c15 36 15 58 0 92" fill="none" stroke="#dfffe8" stroke-width="2"/>
    <path d="M35 64h61" stroke="#eef8f0" stroke-width="3"/>
    <path d="M95 64l-17-8 5 8-5 8z" fill="#dfffe8" stroke="#244b33" stroke-width="2"/>
    <path d="M50 76l14 25 14-25M55 61h18" stroke="#d8ffd7" stroke-opacity=".6" stroke-width="4"/>
    <circle cx="64" cy="58" r="4" fill="#f5ffe9"/>
  </g>
</svg>
