<svg xmlns="http://www.w3.org/2000/svg" viewBox="0 0 128 128" role="img" aria-label="Elementalist">
  <defs>
    <radialGradient id="aura" cx="50%" cy="43%" r="67%">
      <stop offset="0" stop-color="#ffe7b0" stop-opacity=".7"/>
      <stop offset=".48" stop-color="#e67e22" stop-opacity=".34"/>
      <stop offset="1" stop-color="#0b1118" stop-opacity="0"/>
    </radialGradient>
    <linearGradient id="robe" x1="31" x2="98" y1="16" y2="113">
      <stop stop-color="#ffcf78"/>
      <stop offset=".43" stop-color="#e46d1e"/>
      <stop offset="1" stop-color="#5c2018"/>
    </linearGradient>
    <radialGradient id="core" cx="42%" cy="30%" r="65%">
      <stop stop-color="#fff7a6"/>
      <stop offset=".48" stop-color="#ff8c2e"/>
      <stop offset="1" stop-color="#b62020"/>
    </radialGradient>
    <filter id="shadow" x="-20%" y="-20%" width="140%" height="150%">
      <feDropShadow dx="0" dy="7" stdDeviation="5" flood-color="#000" flood-opacity=".42"/>
    </filter>
  </defs>
  <ellipse cx="64" cy="72" rx="50" ry="45" fill="url(#aura)"/>
  <g filter="url(#shadow)" stroke-linecap="round" stroke-linejoin="round">
    <path d="M64 12l31 29-11 75-20-12-20 12-11-75z" fill="url(#robe)" stroke="#34100d" stroke-width="4"/>
    <path d="M46 43l18-20 18 20-8 15H54z" fill="#5e2014" stroke="#ffc36d" stroke-width="3"/>
    <circle cx="64" cy="70" r="14" fill="url(#core)" stroke="#fff0a8" stroke-width="4"/>
    <path d="M64 36c17 20 17 48 0 70M41 77c14 10 32 10 46 0" fill="none" stroke="#ffe29a" stroke-opacity=".65" stroke-width="4"/>
    <circle cx="29" cy="58" r="8" fill="#74e0ff" stroke="#e6fbff" stroke-width="3"/>
    <circle cx="99" cy="56" r="9" fill="#ff5e4f" stroke="#ffd2a8" stroke-width="3"/>
    <circle cx="88" cy="95" r="7" fill="#ffd166" stroke="#fff0a8" stroke-width="3"/>
    <path d="M30 86l34 19 34-19" fill="none" stroke="#6ee7b7" stroke-opacity=".75" stroke-width="5"/>
  </g>
</svg>
