<svg xmlns="http://www.w3.org/2000/svg" viewBox="0 0 128 128" role="img" aria-label="Healer">
  <defs>
    <radialGradient id="aura" cx="50%" cy="42%" r="68%">
      <stop offset="0" stop-color="#ffffff" stop-opacity=".8"/>
      <stop offset=".42" stop-color="#f1c40f" stop-opacity=".28"/>
      <stop offset="1" stop-color="#0b1118" stop-opacity="0"/>
    </radialGradient>
    <linearGradient id="cloth" x1="33" x2="94" y1="18" y2="114">
      <stop stop-color="#ffffff"/>
      <stop offset=".48" stop-color="#e6edf0"/>
      <stop offset="1" stop-color="#9daab2"/>
    </linearGradient>
    <linearGradient id="mint" x1="33" x2="94" y1="42" y2="106">
      <stop stop-color="#a8ffe8"/>
      <stop offset="1" stop-color="#2ecc71"/>
    </linearGradient>
    <filter id="shadow" x="-20%" y="-20%" width="140%" height="150%">
      <feDropShadow dx="0" dy="7" stdDeviation="5" flood-color="#000" flood-opacity=".34"/>
    </filter>
  </defs>
  <ellipse cx="64" cy="72" rx="51" ry="45" fill="url(#aura)"/>
  <g filter="url(#shadow)" stroke-linecap="round" stroke-linejoin="round">
    <ellipse cx="64" cy="24" rx="20" ry="8" fill="none" stroke="#ffe27a" stroke-width="5"/>
    <path d="M64 21l28 26-12 66-16 8-16-8-12-66z" fill="url(#cloth)" stroke="#59666c" stroke-width="4"/>
    <path d="M46 48h36l-18 16z" fill="#faffff" stroke="#78858b" stroke-width="3"/>
    <path d="M54 73h20v11H54zM59 62h10v33H59z" fill="url(#mint)" stroke="#167b50" stroke-width="3"/>
    <path d="M30 87l34 19 34-19" fill="none" stroke="#ffe27a" stroke-width="5"/>
    <path d="M93 44l9 58" stroke="#d9aa3b" stroke-width="6"/>
    <circle cx="91" cy="38" r="10" fill="#fff4a7" stroke="#d9aa3b" stroke-width="4"/>
    <path d="M87 38h8M91 34v8" stroke="#8b6b12" stroke-width="2.5"/>
    <circle cx="64" cy="58" r="5" fill="#fff4a7"/>
  </g>
</svg>
