<svg xmlns="http://www.w3.org/2000/svg" viewBox="0 0 128 128" role="img" aria-label="Mage">
  <defs>
    <radialGradient id="aura" cx="50%" cy="42%" r="62%">
      <stop offset="0" stop-color="#aeeeff" stop-opacity=".75"/>
      <stop offset=".48" stop-color="#3498db" stop-opacity=".32"/>
      <stop offset="1" stop-color="#0b1118" stop-opacity="0"/>
    </radialGradient>
    <linearGradient id="robe" x1="37" x2="91" y1="16" y2="112">
      <stop stop-color="#8ce9ff"/>
      <stop offset=".42" stop-color="#2476d4"/>
      <stop offset="1" stop-color="#17306d"/>
    </linearGradient>
    <linearGradient id="gold" x1="35" x2="92" y1="36" y2="98">
      <stop stop-color="#fff0a8"/>
      <stop offset="1" stop-color="#d69b26"/>
    </linearGradient>
    <filter id="shadow" x="-20%" y="-20%" width="140%" height="150%">
      <feDropShadow dx="0" dy="7" stdDeviation="5" flood-color="#000" flood-opacity=".38"/>
    </filter>
  </defs>
  <ellipse cx="64" cy="71" rx="49" ry="45" fill="url(#aura)"/>
  <g filter="url(#shadow)" stroke-linecap="round" stroke-linejoin="round">
    <path d="M64 9l25 32-11 7 18 58-32 14-32-14 18-58-11-7z" fill="url(#robe)" stroke="#102844" stroke-width="4"/>
    <path d="M46 41h36l-18 15z" fill="#dffaff" stroke="#123456" stroke-width="3"/>
    <path d="M44 72c10-11 30-11 40 0M55 54l9 58 9-58" fill="none" stroke="#bdefff" stroke-opacity=".68" stroke-width="3"/>
    <path d="M91 28l14 66" stroke="#6f4c2f" stroke-width="6"/>
    <circle cx="88" cy="22" r="13" fill="#74e0ff" stroke="#e8fdff" stroke-width="4"/>
    <path d="M82 22h12M88 16v12" stroke="#155c8b" stroke-width="3"/>
    <path d="M33 89l31 15 31-15" fill="none" stroke="url(#gold)" stroke-width="5"/>
    <circle cx="64" cy="65" r="5" fill="#ffd166"/>
  </g>
</svg>
