<svg xmlns="http://www.w3.org/2000/svg" viewBox="0 0 128 128" role="img" aria-label="Tank">
  <defs>
    <radialGradient id="aura" cx="50%" cy="44%" r="65%">
      <stop offset="0" stop-color="#eef7f8" stop-opacity=".5"/>
      <stop offset=".5" stop-color="#7f8c8d" stop-opacity=".3"/>
      <stop offset="1" stop-color="#0b1118" stop-opacity="0"/>
    </radialGradient>
    <linearGradient id="plate" x1="24" x2="104" y1="20" y2="110">
      <stop stop-color="#f2f7f8"/>
      <stop offset=".42" stop-color="#87989c"/>
      <stop offset="1" stop-color="#3d484d"/>
    </linearGradient>
    <linearGradient id="dark" x1="34" x2="96" y1="32" y2="110">
      <stop stop-color="#9faeb2"/>
      <stop offset="1" stop-color="#31393f"/>
    </linearGradient>
    <filter id="shadow" x="-20%" y="-20%" width="140%" height="150%">
      <feDropShadow dx="0" dy="8" stdDeviation="5" flood-color="#000" flood-opacity=".45"/>
    </filter>
  </defs>
  <ellipse cx="64" cy="73" rx="50" ry="45" fill="url(#aura)"/>
  <g filter="url(#shadow)" stroke-linecap="round" stroke-linejoin="round">
    <path d="M30 33l34-18 34 18-7 69-27 16-27-16z" fill="url(#plate)" stroke="#1a2226" stroke-width="4"/>
    <path d="M45 42h38l9 20-28 15-28-15z" fill="url(#dark)" stroke="#1b252b" stroke-width="4"/>
    <path d="M42 75l22 13 22-13v24l-22 13-22-13z" fill="#59676d" stroke="#202a30" stroke-width="3"/>
    <path d="M21 45l21-13 10 20-9 44-22-9z" fill="#aebabe" stroke="#1a2226" stroke-width="4"/>
    <path d="M86 44l15-7 9 14-11 18-15-7z" fill="#c8d1d3" stroke="#1a2226" stroke-width="4"/>
    <path d="M48 57h32M54 90h20M64 44v67" stroke="#eef7f8" stroke-opacity=".62" stroke-width="3"/>
    <circle cx="64" cy="62" r="6" fill="#74e0ff" stroke="#213945" stroke-width="3"/>
  </g>
</svg>
