<svg xmlns="http://www.w3.org/2000/svg" viewBox="0 0 128 128" role="img" aria-label="Warrior">
  <defs>
    <radialGradient id="aura" cx="50%" cy="35%" r="65%">
      <stop offset="0" stop-color="#ffcf8a" stop-opacity=".65"/>
      <stop offset=".45" stop-color="#e74c3c" stop-opacity=".28"/>
      <stop offset="1" stop-color="#0b1118" stop-opacity="0"/>
    </radialGradient>
    <linearGradient id="armor" x1="24" x2="104" y1="28" y2="108">
      <stop stop-color="#ff8a70"/>
      <stop offset=".45" stop-color="#d43d32"/>
      <stop offset="1" stop-color="#7c1718"/>
    </linearGradient>
    <linearGradient id="steel" x1="26" x2="102" y1="24" y2="98">
      <stop stop-color="#f8fbff"/>
      <stop offset=".45" stop-color="#9fb0bd"/>
      <stop offset="1" stop-color="#465765"/>
    </linearGradient>
    <filter id="shadow" x="-20%" y="-20%" width="140%" height="150%">
      <feDropShadow dx="0" dy="7" stdDeviation="5" flood-color="#000" flood-opacity=".42"/>
    </filter>
  </defs>
  <ellipse cx="64" cy="72" rx="48" ry="44" fill="url(#aura)"/>
  <g filter="url(#shadow)" stroke-linecap="round" stroke-linejoin="round">
    <path d="M68 15l33 25-12 63-25 14-25-14-12-63z" fill="url(#armor)" stroke="#341014" stroke-width="4"/>
    <path d="M68 15l21 16-8 15-14 6-15-7-7-15z" fill="#ffc06e" stroke="#5b2418" stroke-width="4"/>
    <path d="M38 62l26-14 26 14-6 29-20 12-20-12z" fill="#a61f24" stroke="#521015" stroke-width="3"/>
    <path d="M48 61l16 9 16-9M64 70v31" fill="none" stroke="#ffb39d" stroke-opacity=".55" stroke-width="3"/>
    <path d="M25 32l-9 49 11 8 12-43z" fill="url(#steel)" stroke="#1e2830" stroke-width="4"/>
    <path d="M102 22l8 7-38 54-8-7z" fill="url(#steel)" stroke="#1e2830" stroke-width="3"/>
    <path d="M107 18l8 8M69 80l11 10" stroke="#f7fbff" stroke-width="4"/>
    <circle cx="64" cy="45" r="7" fill="#fff2ce"/>
  </g>
</svg>
